Coordinates
version=1
nRows=21
nColumns=38
inDegrees=no

Units are S.I. units (second, meters, Newtons, ...)
If the header above contains a line with 'inDegrees', this indicates whether rotational values are in degrees (yes) or radians (no).

endheader
time	pelvis_tilt	pelvis_list	pelvis_rotation	pelvis_tx	pelvis_ty	pelvis_tz	hip_flexion_r	hip_adduction_r	hip_rotation_r	knee_angle_r	ankle_angle_r	subtalar_angle_r	mtp_angle_r	hip_flexion_l	hip_adduction_l	hip_rotation_l	knee_angle_l	ankle_angle_l	subtalar_angle_l	mtp_angle_l	lumbar_extension	lumbar_bending	lumbar_rotation	arm_flex_r	arm_add_r	arm_rot_r	elbow_flex_r	pro_sup_r	wrist_flex_r	wrist_dev_r	arm_flex_l	arm_add_l	arm_rot_l	elbow_flex_l	pro_sup_l	wrist_flex_l	wrist_dev_l
2.4	-0.0842958	0.0141371	-0.0199918	0.956912	0.987417	-0.355398	0.120902	0.073119	0.0409185	-0.734544	0.434704	0.054096	9.92672e-06	0.766185	-0.0416518	-0.106976	-1.7828	0.136472	0.0566948	-6.8431e-05	-0.172215	0.0373187	0.107609	-0.176843	-0.336656	-0.0862427	1.90311	1.87324	-0.000960851	0.0655155	-0.702645	-0.291813	-0.0381697	1.91898	1.87068	0.0999988	0.0999984
2.41	-0.0973121	0.0264596	-0.00732937	0.959387	0.993384	-0.3561	0.0644879	0.0533901	0.0275556	-0.671634	0.361145	0.054096	9.92672e-06	0.802994	-0.0301086	-0.125795	-1.70423	0.141863	0.0566948	-6.8431e-05	-0.150492	0.0210055	0.113596	-0.173789	-0.325559	-0.0864707	1.95395	1.88974	-0.000960851	0.0655155	-0.741606	-0.302042	-0.0535381	1.95795	1.86807	0.0999988	0.0999984
2.42	-0.110284	0.037792	0.00652101	0.962251	0.999712	-0.356893	0.00984293	0.0353022	0.0111026	-0.608978	0.273157	0.054096	9.92672e-06	0.831919	-0.0185697	-0.14676	-1.61522	0.144863	0.0566948	-6.8431e-05	-0.128695	0.00530838	0.117279	-0.173878	-0.31505	-0.0858276	2.00664	1.90863	-0.000960851	0.0655155	-0.780111	-0.310646	-0.0713044	1.99604	1.86685	0.0999988	0.0999984
2.43	-0.122658	0.0475119	0.0212018	0.96532	1.00615	-0.357809	-0.0418173	0.0199607	-0.00696687	-0.549816	0.175471	0.054096	9.92672e-06	0.852926	-0.00629656	-0.167083	-1.51706	0.14535	0.0566948	-6.8431e-05	-0.10787	-0.00895734	0.119002	-0.176061	-0.30601	-0.0835448	2.05913	1.92916	-0.000960851	0.0655155	-0.816888	-0.31726	-0.0909114	2.03175	1.86627	0.0999988	0.0999984
2.44	-0.133916	0.055033	0.036173	0.968403	1.01246	-0.358846	-0.0893689	0.00836194	-0.0246318	-0.4975	0.0738869	0.054096	9.92672e-06	0.866182	0.00728913	-0.183797	-1.41128	0.143482	0.0566948	-6.8431e-05	-0.0889487	-0.0210056	0.119307	-0.179472	-0.299196	-0.0791513	2.10958	1.95046	-0.000960851	0.0655155	-0.85074	-0.321606	-0.111744	2.06416	1.86591	0.0999988	0.0999984
2.45	-0.143552	0.0598871	0.0507748	0.971346	1.01844	-0.359957	-0.13186	0.00127647	-0.039604	-0.455315	-0.0252506	0.054096	9.92672e-06	0.872003	0.0224165	-0.194185	-1.29963	0.139768	0.0566948	-6.8431e-05	-0.0727119	-0.030199	0.11882	-0.183459	-0.295124	-0.0724799	2.15625	1.97169	-0.000960851	0.0655155	-0.880627	-0.323503	-0.13318	2.09278	1.86579	0.0999988	0.0999984
2.46	-0.151115	0.0618305	0.0643229	0.974051	1.02393	-0.361068	-0.168576	-0.000860115	-0.0497312	-0.426236	-0.115737	0.054096	9.92672e-06	0.870813	0.038885	-0.196226	-1.1842	0.135074	0.0566948	-6.8431e-05	-0.0597649	-0.0361654	0.118125	-0.187592	-0.294001	-0.063659	2.19757	1.99211	-0.000960851	0.0655155	-0.905714	-0.322899	-0.154605	2.11751	1.8662	0.0999988	0.0999984
2.47	-0.156279	0.0609312	0.0762189	0.976459	1.02878	-0.362093	-0.199065	0.00196895	-0.0534307	-0.412697	-0.192257	0.054096	9.92672e-06	0.86313	0.0561106	-0.188941	-1.06737	0.130529	0.0566948	-6.8431e-05	-0.0505295	-0.0388823	0.117665	-0.191681	-0.295688	-0.0531027	2.23207	2.01107	-0.000960851	0.0655155	-0.925401	-0.319888	-0.175397	2.13847	1.86754	0.0999988	0.0999984
2.48	-0.158868	0.0575808	0.0860402	0.978543	1.03291	-0.362955	-0.223109	0.00932392	-0.0500547	-0.416403	-0.251095	0.054096	9.92672e-06	0.84959	0.0732682	-0.17258	-0.951813	0.127331	0.0566948	-6.8431e-05	-0.0452211	-0.03871	0.117688	-0.195777	-0.299726	-0.0414923	2.25851	2.02793	-0.000960851	0.0655155	-0.939326	-0.314735	-0.194918	2.1559	1.87011	0.0999988	0.0999984
2.49	-0.158858	0.0524406	0.0935948	0.980298	1.03625	-0.363606	-0.240676	0.020343	-0.0401016	-0.438203	-0.290647	0.054096	9.92672e-06	0.830967	0.0894674	-0.148605	-0.840401	0.126461	0.0566948	-6.8431e-05	-0.0438398	-0.0363363	0.118244	-0.200159	-0.305401	-0.0297295	2.27592	2.0421	-0.000960851	0.0655155	-0.947356	-0.307881	-0.212522	2.17011	1.87402	0.0999988	0.0999984
2.5	-0.156388	0.0463298	0.0989344	0.981744	1.03876	-0.364026	-0.25184	0.0338418	-0.0252036	-0.478058	-0.311608	0.054096	9.92672e-06	0.808193	0.103903	-0.119489	-0.736053	0.128386	0.0566948	-6.8431e-05	-0.0461707	-0.0326443	0.119206	-0.205292	-0.311862	-0.0188406	2.28375	2.05306	-0.000960851	0.0655155	-0.94957	-0.299918	-0.2276	2.18138	1.87917	0.0999988	0.0999984
2.51	-0.151749	0.0400651	0.102324	0.98291	1.04045	-0.364227	-0.256698	0.048459	-0.00785312	-0.535103	-0.3167	0.054096	9.92672e-06	0.782373	0.115955	-0.0883572	-0.641552	0.132859	0.0566948	-6.8431e-05	-0.0517856	-0.0285475	0.120324	-0.211737	-0.318252	-0.00982612	2.28186	2.06038	-0.000960851	0.0655155	-0.946232	-0.291527	-0.239641	2.18997	1.88527	0.0999988	0.0999984
2.52	-0.145377	0.0343214	0.10418	0.983822	1.04128	-0.364241	-0.255328	0.0628177	0.00906188	-0.607758	-0.309991	0.054096	9.92672e-06	0.754762	0.125245	-0.0585372	-0.559372	0.138893	0.0566948	-6.8431e-05	-0.0600614	-0.0248224	0.121276	-0.220045	-0.323845	-0.0034975	2.27051	2.06378	-0.000960851	0.0655155	-0.937761	-0.283401	-0.248291	2.19611	1.89197	0.0999988	0.0999984
2.53	-0.137844	0.0295187	0.104983	0.984488	1.04126	-0.364112	-0.247796	0.0756621	0.0227905	-0.693852	-0.295984	0.054096	9.92672e-06	0.726715	0.131652	-0.0330452	-0.491559	0.144971	0.0566948	-6.8431e-05	-0.0702387	-0.0220047	0.121718	-0.230636	-0.328141	-0.000346472	2.2503	2.0632	-0.000960851	0.0655155	-0.924667	-0.276162	-0.253385	2.19996	1.89882	0.0999988	0.0999984
2.54	-0.129811	0.0258206	0.105218	0.984907	1.04034	-0.363885	-0.234216	0.0859343	0.0311781	-0.79076	-0.278724	0.054096	9.92672e-06	0.699609	0.135309	-0.01412	-0.439692	0.149399	0.0566948	-6.8431e-05	-0.0815031	-0.0203545	0.121336	-0.243707	-0.330907	-0.000482769	2.22202	2.05883	-0.000960851	0.0655155	-0.907483	-0.270293	-0.254943	2.20155	1.90537	0.0999988	0.0999984
2.55	-0.121917	0.0232239	0.105287	0.985071	1.03849	-0.363598	-0.214753	0.0927895	0.0329678	-0.895613	-0.261088	0.054096	9.92672e-06	0.674782	0.136583	-0.00293674	-0.404892	0.15075	0.0566948	-6.8431e-05	-0.0930478	-0.0199215	0.119877	-0.259154	-0.332149	-0.00364194	2.18646	2.05131	-0.000960851	0.0655155	-0.886708	-0.2661	-0.253156	2.20078	1.91116	0.0999988	0.0999984
2.56	-0.114735	0.0216565	0.105456	0.98497	1.03566	-0.363291	-0.189642	0.0955687	0.027889	-1.00551	-0.244466	0.054096	9.92672e-06	0.65344	0.136072	0.000474252	-0.387857	0.148274	0.0566948	-6.8431e-05	-0.10418	-0.0206678	0.117147	-0.276553	-0.332043	-0.00925931	2.14432	2.04185	-0.000960851	0.0655155	-0.862742	-0.263698	-0.248343	2.19735	1.91574	0.0999988	0.0999984
2.57	-0.10872	0.0210813	0.105842	0.984597	1.03182	-0.363004	-0.15919	0.0937754	0.0165692	-1.11773	-0.228853	0.054096	9.92672e-06	0.636549	0.134574	-0.00289033	-0.388881	0.142242	0.0566948	-6.8431e-05	-0.114408	-0.022579	0.112998	-0.295187	-0.330846	-0.0165876	2.09617	2.03223	-0.000960851	0.0655155	-0.83586	-0.263027	-0.240901	2.19078	1.91869	0.0999988	0.0999984
2.58	-0.104163	0.0215662	0.106434	0.98394	1.02694	-0.362777	-0.123739	0.087092	0.000346665	-1.22983	-0.213282	0.054096	9.92672e-06	0.624727	0.133035	-0.0112591	-0.407777	0.134174	0.0566948	-6.8431e-05	-0.123483	-0.0257239	0.107313	-0.314138	-0.328822	-0.0248304	2.04246	2.0247	-0.000960851	0.0655155	-0.806199	-0.263889	-0.231247	2.18046	1.91962	0.0999988	0.0999984
2.59	-0.101165	0.023271	0.107127	0.982979	1.02104	-0.36265	-0.0836108	0.0754357	-0.0189562	-1.33975	-0.19643	0.054096	9.92672e-06	0.618103	0.132465	-0.022416	-0.443668	0.126838	0.0566948	-6.8431e-05	-0.131385	-0.0302594	0.0999965	-0.332431	-0.326195	-0.0332691	1.98367	2.02173	-0.000960851	0.0655155	-0.773783	-0.265997	-0.219771	2.16577	1.91824	0.0999988	0.0999984
2.6	-0.0996745	0.0263874	0.107746	0.981699	1.01424	-0.362634	-0.0390706	0.059047	-0.0392703	-1.44576	-0.17723	0.054096	9.92672e-06	0.616161	0.133785	-0.0340662	-0.494674	0.12385	0.0566948	-6.8431e-05	-0.138274	-0.0363526	0.0910015	-0.349207	-0.323155	-0.0413644	1.92053	2.02556	-0.000960851	0.0655155	-0.738582	-0.269013	-0.206808	2.14619	1.91447	0.0999988	0.0999984
